<svg xmlns="http://www.w3.org/2000/svg" viewBox="0 0 800 420" role="img" aria-labelledby="title desc">
  <title id="title">Agent Substrate 近期非合并提交数</title>
  <desc id="desc">2026 年 9 月 16 日至 22 日截至 12:01 UTC 的非合并提交数依次为 7、7、13、0、2、4、3。</desc>
  <rect width="800" height="420" fill="#f8fafc"/>
  <text x="64" y="45" fill="#0f172a" font-family="Arial, sans-serif" font-size="24" font-weight="700">默认分支近期提交（UTC）</text>
  <text x="64" y="72" fill="#64748b" font-family="Arial, sans-serif" font-size="15">按 author date 分日；排除信息以 “Merge ” 开头的提交（本窗口为 0 条）</text>
  <path d="M90 330H746M90 250H746M90 170H746M90 90H746" stroke="#cbd5e1" stroke-width="1"/>
  <path d="M90 70V330H746" fill="none" stroke="#64748b" stroke-width="2"/>
  <g fill="#64748b" font-family="Arial, sans-serif" font-size="14"><text x="62" y="335">0</text><text x="56" y="255">5</text><text x="50" y="175">10</text><text x="50" y="95">15</text></g>
  <g fill="#0284c7"><rect x="126" y="218" width="52" height="112" rx="5"/><rect x="214" y="218" width="52" height="112" rx="5"/><rect x="302" y="122" width="52" height="208" rx="5"/><rect x="478" y="298" width="52" height="32" rx="5"/><rect x="566" y="266" width="52" height="64" rx="5"/><rect x="654" y="282" width="52" height="48" rx="5"/></g>
  <g fill="#0f172a" font-family="Arial, sans-serif" font-size="18" font-weight="700"><text x="143" y="207">7</text><text x="231" y="207">7</text><text x="315" y="111">13</text><text x="407" y="319">0</text><text x="495" y="287">2</text><text x="583" y="255">4</text><text x="671" y="271">3</text></g>
  <g fill="#334155" font-family="Arial, sans-serif" font-size="14"><text x="125" y="360">09-16</text><text x="213" y="360">09-17</text><text x="301" y="360">09-18</text><text x="389" y="360">09-19</text><text x="477" y="360">09-20</text><text x="565" y="360">09-21</text><text x="653" y="360">09-22*</text></g>
  <text x="64" y="398" fill="#64748b" font-family="Arial, sans-serif" font-size="14">* 截至 12:01 UTC；柱图只反映 API 返回记录在该窗口的提交频率。</text>
</svg>
