<svg xmlns="http://www.w3.org/2000/svg" viewBox="0 0 760 360" role="img" aria-labelledby="title desc">
  <title id="title">Scientific Agent Skills 每日提交情况</title>
  <desc id="desc">从 2026 年 8 月 24 日至 9 月 1 日 08:00 UTC，非机器人、非合并提交数依次为 0、0、0、0、1、3、0、1、0。</desc>
  <rect width="760" height="360" fill="#ffffff"/>
  <text x="56" y="34" fill="#171717" font-family="Arial, sans-serif" font-size="20" font-weight="700">仓库提交数（UTC）</text>
  <text x="56" y="58" fill="#666666" font-family="Arial, sans-serif" font-size="13">2026-08-24 至 2026-09-01 08:00；已排除 merge 与 [bot] 提交</text>
  <g stroke="#e5e5e5" stroke-width="1"><line x1="64" y1="92" x2="720" y2="92"/><line x1="64" y1="163" x2="720" y2="163"/><line x1="64" y1="233" x2="720" y2="233"/><line x1="64" y1="304" x2="720" y2="304"/></g>
  <g fill="#666666" font-family="Arial, sans-serif" font-size="12" text-anchor="end"><text x="54" y="96">3</text><text x="54" y="167">2</text><text x="54" y="237">1</text><text x="54" y="308">0</text></g>
  <g fill="#0f766e"><rect x="75" y="302" width="38" height="2" rx="1"/><rect x="148" y="302" width="38" height="2" rx="1"/><rect x="221" y="302" width="38" height="2" rx="1"/><rect x="294" y="302" width="38" height="2" rx="1"/><rect x="367" y="233" width="38" height="71" rx="4"/><rect x="440" y="92" width="38" height="212" rx="4"/><rect x="513" y="302" width="38" height="2" rx="1"/><rect x="586" y="233" width="38" height="71" rx="4"/><rect x="659" y="302" width="38" height="2" rx="1"/></g>
  <g fill="#115e59" font-family="Arial, sans-serif" font-size="13" font-weight="700" text-anchor="middle"><text x="94" y="290">0</text><text x="167" y="290">0</text><text x="240" y="290">0</text><text x="313" y="290">0</text><text x="386" y="223">1</text><text x="459" y="82">3</text><text x="532" y="290">0</text><text x="605" y="223">1</text><text x="678" y="290">0</text></g>
  <g fill="#666666" font-family="Arial, sans-serif" font-size="10" text-anchor="middle"><text x="94" y="330">08-24</text><text x="167" y="330">08-25</text><text x="240" y="330">08-26</text><text x="313" y="330">08-27</text><text x="386" y="330">08-28</text><text x="459" y="330">08-29</text><text x="532" y="330">08-30</text><text x="605" y="330">08-31</text><text x="678" y="330">09-01</text></g>
</svg>
