<svg xmlns="http://www.w3.org/2000/svg" width="960" height="530" viewBox="0 0 960 530" role="img" aria-labelledby="title desc"><title id="title">最近 7 个完整自然日的提交记录</title><desc id="desc">2026-10-01：32；2026-10-02：8；2026-10-03：2；2026-10-04：2；2026-10-05：35；2026-10-06：9；2026-10-07：32。按 committer 时间计数，合计 120 次。</desc><rect width="960" height="530" rx="18" fill="#fafcfb"/><g font-family="system-ui, -apple-system, Segoe UI, Noto Sans CJK SC, sans-serif"><text x="38" y="47" font-size="25" fill="#182c37" text-anchor="start" font-weight="700">最近 7 个完整自然日的提交记录</text><text x="38" y="79" font-size="15" fill="#485f6a" text-anchor="start" font-weight="400">2026/10/01–10/07 · Asia/Shanghai（UTC+8）· 固定 main 分支快照</text><line x1="84" y1="398.0" x2="900" y2="398.0" stroke="#dbe4e7"/><text x="66" y="404.0" font-size="15" fill="#485f6a" text-anchor="end" font-weight="400">0</text><line x1="84" y1="329.5" x2="900" y2="329.5" stroke="#dbe4e7"/><text x="66" y="335.5" font-size="15" fill="#485f6a" text-anchor="end" font-weight="400">9</text><line x1="84" y1="261.0" x2="900" y2="261.0" stroke="#dbe4e7"/><text x="66" y="267.0" font-size="15" fill="#485f6a" text-anchor="end" font-weight="400">18</text><line x1="84" y1="192.5" x2="900" y2="192.5" stroke="#dbe4e7"/><text x="66" y="198.5" font-size="15" fill="#485f6a" text-anchor="end" font-weight="400">27</text><line x1="84" y1="124.0" x2="900" y2="124.0" stroke="#dbe4e7"/><text x="66" y="130.0" font-size="15" fill="#485f6a" text-anchor="end" font-weight="400">36</text><text x="38" y="111" font-size="14" fill="#485f6a" text-anchor="start" font-weight="400">次提交</text><text x="84.0" y="432" font-size="16" fill="#485f6a" text-anchor="middle" font-weight="400">10/01</text><text x="220.0" y="432" font-size="16" fill="#485f6a" text-anchor="middle" font-weight="400">10/02</text><text x="356.0" y="432" font-size="16" fill="#485f6a" text-anchor="middle" font-weight="400">10/03</text><text x="492.0" y="432" font-size="16" fill="#485f6a" text-anchor="middle" font-weight="400">10/04</text><text x="628.0" y="432" font-size="16" fill="#485f6a" text-anchor="middle" font-weight="400">10/05</text><text x="764.0" y="432" font-size="16" fill="#485f6a" text-anchor="middle" font-weight="400">10/06</text><text x="900.0" y="432" font-size="16" fill="#485f6a" text-anchor="middle" font-weight="400">10/07</text><polyline fill="none" stroke="#007f78" stroke-width="3" points="84.0,154.44444444444446 220.0,337.1111111111111 356.0,382.77777777777777 492.0,382.77777777777777 628.0,131.6111111111111 764.0,329.5 900.0,154.44444444444446"/><circle cx="84.0" cy="154.44444444444446" r="5" fill="#007f78"/><text x="84.0" y="139.44444444444446" font-size="17" fill="#007f78" text-anchor="middle" font-weight="700">32</text><circle cx="220.0" cy="337.1111111111111" r="5" fill="#007f78"/><text x="220.0" y="322.1111111111111" font-size="17" fill="#007f78" text-anchor="middle" font-weight="700">8</text><circle cx="356.0" cy="382.77777777777777" r="5" fill="#007f78"/><text x="356.0" y="367.77777777777777" font-size="17" fill="#007f78" text-anchor="middle" font-weight="700">2</text><circle cx="492.0" cy="382.77777777777777" r="5" fill="#007f78"/><text x="492.0" y="367.77777777777777" font-size="17" fill="#007f78" text-anchor="middle" font-weight="700">2</text><circle cx="628.0" cy="131.6111111111111" r="5" fill="#007f78"/><text x="628.0" y="116.61111111111109" font-size="17" fill="#007f78" text-anchor="middle" font-weight="700">35</text><circle cx="764.0" cy="329.5" r="5" fill="#007f78"/><text x="764.0" y="314.5" font-size="17" fill="#007f78" text-anchor="middle" font-weight="700">9</text><circle cx="900.0" cy="154.44444444444446" r="5" fill="#007f78"/><text x="900.0" y="139.44444444444446" font-size="17" fill="#007f78" text-anchor="middle" font-weight="700">32</text><text x="38" y="481" font-size="14" fill="#485f6a" text-anchor="start" font-weight="400">按 commit.committer.date 分日；含合并提交，不等同于 push 次数或开发产出。</text><text x="38" y="507" font-size="14" fill="#485f6a" text-anchor="start" font-weight="400">来源：GitHub REST API · docker/docker-agent · 数据与方法见附表</text></g></svg>