<svg xmlns="http://www.w3.org/2000/svg" viewBox="0 0 720 360" role="img" aria-labelledby="title desc">
  <title id="title">OpenShell 近七日非合并非机器人提交数</title>
  <desc id="desc">2026 年 9 月 23 日 09:04 至 30 日 09:04 UTC 的按日提交数依次为 18、10、18、5、4、15、14、4。</desc>
  <rect width="720" height="360" rx="16" fill="#f8fafc"/>
  <text x="54" y="42" fill="#0f172a" font-family="system-ui, sans-serif" font-size="20" font-weight="700">非合并、非机器人提交（UTC）</text>
  <path d="M72 284H678M72 82V284M72 244H678M72 203H678M72 163H678M72 122H678M72 82H678" stroke="#cbd5e1" stroke-width="1"/>
  <g fill="#0ea5e9"><rect x="86" y="102" width="42" height="182" rx="4"/><rect x="159" y="183" width="42" height="101" rx="4"/><rect x="232" y="102" width="42" height="182" rx="4"/><rect x="305" y="233" width="42" height="51" rx="4"/><rect x="378" y="244" width="42" height="40" rx="4"/><rect x="451" y="132" width="42" height="152" rx="4"/><rect x="524" y="142" width="42" height="142" rx="4"/><rect x="597" y="244" width="42" height="40" rx="4"/></g>
  <g fill="#0f172a" font-family="system-ui, sans-serif" font-size="12" text-anchor="middle"><text x="107" y="306">9/23</text><text x="180" y="306">9/24</text><text x="253" y="306">9/25</text><text x="326" y="306">9/26</text><text x="399" y="306">9/27</text><text x="472" y="306">9/28</text><text x="545" y="306">9/29</text><text x="618" y="306">9/30</text></g>
  <g fill="#475569" font-family="system-ui, sans-serif" font-size="13" text-anchor="end"><text x="62" y="288">0</text><text x="62" y="248">4</text><text x="62" y="207">8</text><text x="62" y="167">12</text><text x="62" y="126">16</text><text x="62" y="86">20</text></g>
  <g fill="#0f172a" font-family="system-ui, sans-serif" font-size="14" font-weight="700" text-anchor="middle"><text x="107" y="92">18</text><text x="180" y="173">10</text><text x="253" y="92">18</text><text x="326" y="223">5</text><text x="399" y="234">4</text><text x="472" y="122">15</text><text x="545" y="132">14</text><text x="618" y="234">4</text></g>
  <text x="678" y="336" text-anchor="end" fill="#64748b" font-family="system-ui, sans-serif" font-size="12">窗口：2026-09-23 09:04 至 2026-09-30 09:04 UTC</text>
</svg>
