<svg xmlns="http://www.w3.org/2000/svg" width="720" height="340" viewBox="0 0 720 340" role="img" aria-labelledby="title desc">
  <title id="title">JustVugg/colibri 近期公开 Star 事件</title>
  <desc id="desc">GitHub Events API 最新 100 条事件中的 94 条 WatchEvent 按 UTC 十分钟分桶：15、9、17、14、14、22、3。</desc>
  <rect width="720" height="340" fill="#fff" rx="12"/>
  <g font-family="system-ui, sans-serif" fill="#1f2937"><text x="56" y="34" font-size="18" font-weight="700">近期公开 Star 事件（UTC，滚动样本）</text><text x="56" y="57" font-size="12" fill="#6b7280">94 个 WatchEvent；非完整 Star 历史</text></g>
  <g stroke="#e5e7eb" stroke-width="1"><path d="M56 96H680M56 151H680M56 206H680M56 261H680"/><path d="M56 78V261H680"/></g>
  <g font-family="system-ui, sans-serif" font-size="12" fill="#6b7280"><text x="35" y="265">0</text><text x="28" y="210">10</text><text x="28" y="155">20</text><text x="83" y="285">08:00</text><text x="174" y="285">08:10</text><text x="265" y="285">08:20</text><text x="356" y="285">08:30</text><text x="447" y="285">08:40</text><text x="538" y="285">08:50</text><text x="629" y="285">09:00</text><text x="622" y="310">UTC</text></g>
  <polyline fill="none" stroke="#2563eb" stroke-width="4" stroke-linecap="round" stroke-linejoin="round" points="96,151 187,195 278,135 369,162 460,162 551,107 642,239"/>
  <g fill="#2563eb" stroke="#fff" stroke-width="3"><circle cx="96" cy="151" r="6"/><circle cx="187" cy="195" r="6"/><circle cx="278" cy="135" r="6"/><circle cx="369" cy="162" r="6"/><circle cx="460" cy="162" r="6"/><circle cx="551" cy="107" r="6"/><circle cx="642" cy="239" r="6"/></g>
  <g font-family="system-ui, sans-serif" font-size="12" font-weight="700" fill="#1d4ed8"><text x="89" y="140">15</text><text x="180" y="184">9</text><text x="271" y="124">17</text><text x="362" y="151">14</text><text x="453" y="151">14</text><text x="544" y="96">22</text><text x="635" y="228">3</text></g>
</svg>
